# xmcd CD database file
#
# Track frame offsets:
#	150
#	23976
#	45645
#	72072
#	86181
#	96983
#
# Disc length: 2322 seconds
#
# Revision: 0
# Processed by: cddbd v1.5.2PL0 Copyright (c) Steve Scherf et al.
# Submitted via: CDex 1.70beta2
#
DISCID=4a091006
DTITLE=HUMANFLY - DARKER LATER (2011 ALBUM)
DYEAR=2011
DGENRE=Sludge Metal
TTITLE0=THIS IS WHERE YOUR PARENTS FUCKED
TTITLE1=ENGLISH AND PROUD AND STUPID AND RACIST
TTITLE2=STEW FOR THE MURDER MINDED 
TTITLE3=THE ENEMY OF MY ENEMY IS ME 
TTITLE4=DARKER LATER 
TTITLE5=HEAVY BLACK SNOW (FEAT. ROSE KEMP)  
EXTD=YEAR: 2011
EXTT0=
EXTT1=
EXTT2=
EXTT3=
EXTT4=
EXTT5=
PLAYORDER=
